<svg width="24" height="24" viewBox="0 0 24 24" fill="none" xmlns="http://www.w3.org/2000/svg">
<mask id="mask0_371_2641" style="mask-type:alpha" maskUnits="userSpaceOnUse" x="0" y="0" width="24" height="24">
<rect width="24" height="24" fill="#D9D9D9"/>
</mask>
<g mask="url(#mask0_371_2641)">
<path d="M8.35 13.55H15.65V13.2C15.65 12.5667 15.3123 12.05 14.637 11.65C13.9623 11.25 13.0833 11.05 12 11.05C10.9167 11.05 10.0377 11.25 9.363 11.65C8.68767 12.05 8.35 12.5667 8.35 13.2V13.55ZM12 9.75C12.4833 9.75 12.896 9.57933 13.238 9.238C13.5793 8.896 13.75 8.48333 13.75 8C13.75 7.51667 13.5793 7.104 13.238 6.762C12.896 6.42067 12.4833 6.25 12 6.25C11.5167 6.25 11.104 6.42067 10.762 6.762C10.4207 7.104 10.25 7.51667 10.25 8C10.25 8.48333 10.4207 8.896 10.762 9.238C11.104 9.57933 11.5167 9.75 12 9.75ZM2.5 21.05V4.3C2.5 3.8 2.675 3.375 3.025 3.025C3.375 2.675 3.8 2.5 4.3 2.5H19.7C20.2 2.5 20.625 2.675 20.975 3.025C21.325 3.375 21.5 3.8 21.5 4.3V15.7C21.5 16.2 21.325 16.625 20.975 16.975C20.625 17.325 20.2 17.5 19.7 17.5H6.05L2.5 21.05ZM4 17.425L5.425 16H19.7C19.7833 16 19.8543 15.9707 19.913 15.912C19.971 15.854 20 15.7833 20 15.7V4.3C20 4.21667 19.971 4.14567 19.913 4.087C19.8543 4.029 19.7833 4 19.7 4H4.3C4.21667 4 4.146 4.029 4.088 4.087C4.02933 4.14567 4 4.21667 4 4.3V17.425ZM4 4.3V4V17.425V4.3Z" fill="#2C5BB3"/>
</g>
</svg>
