<svg width="24" height="24" viewBox="0 0 24 24" fill="none" xmlns="http://www.w3.org/2000/svg">
<mask id="mask0_371_2634" style="mask-type:alpha" maskUnits="userSpaceOnUse" x="0" y="0" width="24" height="24">
<rect width="24" height="24" fill="#D9D9D9"/>
</mask>
<g mask="url(#mask0_371_2634)">
<path d="M1.8 19.3V17.075C1.8 16.5583 1.93334 16.1 2.2 15.7C2.46667 15.3 2.825 14.9833 3.275 14.75C4.225 14.3 5.17934 13.946 6.138 13.688C7.096 13.4293 8.15 13.3 9.3 13.3C10.45 13.3 11.5043 13.4293 12.463 13.688C13.421 13.946 14.375 14.3 15.325 14.75C15.775 14.9833 16.1333 15.3 16.4 15.7C16.6667 16.1 16.8 16.5583 16.8 17.075V19.3H1.8ZM18.8 19.3V16.95C18.8 16.3 18.6373 15.679 18.312 15.087C17.9873 14.4957 17.5333 13.9833 16.95 13.55C17.6167 13.65 18.25 13.804 18.85 14.012C19.45 14.2207 20.025 14.4667 20.575 14.75C21.0917 15.0333 21.4917 15.3627 21.775 15.738C22.0583 16.1127 22.2 16.5167 22.2 16.95V19.3H18.8ZM9.3 11.7C8.33334 11.7 7.50834 11.354 6.825 10.662C6.14167 9.97068 5.8 9.15001 5.8 8.20001C5.8 7.23335 6.14167 6.40835 6.825 5.72501C7.50834 5.04168 8.33334 4.70001 9.3 4.70001C10.2667 4.70001 11.0917 5.04168 11.775 5.72501C12.4583 6.40835 12.8 7.23335 12.8 8.20001C12.8 9.15001 12.4583 9.97068 11.775 10.662C11.0917 11.354 10.2667 11.7 9.3 11.7ZM17.925 8.20001C17.925 9.15001 17.5833 9.97068 16.9 10.662C16.2167 11.354 15.3917 11.7 14.425 11.7C14.325 11.7 14.1873 11.6873 14.012 11.662C13.8373 11.6373 13.6917 11.6083 13.575 11.575C13.975 11.0917 14.2793 10.5627 14.488 9.98801C14.696 9.41268 14.8 8.81668 14.8 8.20001C14.8 7.56668 14.6917 6.96668 14.475 6.40001C14.2583 5.83335 13.9583 5.30835 13.575 4.82501C13.7083 4.77501 13.85 4.74168 14 4.72501C14.15 4.70835 14.2917 4.70001 14.425 4.70001C15.3917 4.70001 16.2167 5.04168 16.9 5.72501C17.5833 6.40835 17.925 7.23335 17.925 8.20001ZM3.3 17.8H15.3V17.075C15.3 16.875 15.246 16.6917 15.138 16.525C15.0293 16.3583 14.8667 16.2167 14.65 16.1C13.8167 15.6833 12.9667 15.3623 12.1 15.137C11.2333 14.9123 10.3 14.8 9.3 14.8C8.3 14.8 7.36267 14.9123 6.488 15.137C5.61267 15.3623 4.76667 15.6833 3.95 16.1C3.71667 16.2167 3.55 16.3583 3.45 16.525C3.35 16.6917 3.3 16.875 3.3 17.075V17.8ZM9.3 10.2C9.85 10.2 10.321 10.004 10.713 9.61201C11.1043 9.22068 11.3 8.75001 11.3 8.20001C11.3 7.65001 11.1043 7.17901 10.713 6.78701C10.321 6.39568 9.85 6.20001 9.3 6.20001C8.75 6.20001 8.27934 6.39568 7.888 6.78701C7.496 7.17901 7.3 7.65001 7.3 8.20001C7.3 8.75001 7.496 9.22068 7.888 9.61201C8.27934 10.004 8.75 10.2 9.3 10.2Z" fill="#2C5BB3"/>
</g>
</svg>
