<svg width="24" height="24" viewBox="0 0 24 24" fill="none" xmlns="http://www.w3.org/2000/svg">
<mask id="mask0_371_2627" style="mask-type:alpha" maskUnits="userSpaceOnUse" x="0" y="0" width="24" height="24">
<rect width="24" height="24" fill="#D9D9D9"/>
</mask>
<g mask="url(#mask0_371_2627)">
<path d="M6.025 17.3C6.875 16.6667 7.8 16.1667 8.8 15.8C9.8 15.4333 10.8667 15.25 12 15.25C13.1333 15.25 14.2 15.4333 15.2 15.8C16.2 16.1667 17.125 16.6667 17.975 17.3C18.5917 16.6167 19.0833 15.825 19.45 14.925C19.8167 14.025 20 13.05 20 12C20 9.78333 19.221 7.89567 17.663 6.337C16.1043 4.779 14.2167 4 12 4C9.78333 4 7.896 4.779 6.338 6.337C4.77933 7.89567 4 9.78333 4 12C4 13.05 4.18333 14.025 4.55 14.925C4.91667 15.825 5.40833 16.6167 6.025 17.3ZM12 12.75C11.0833 12.75 10.3127 12.4373 9.688 11.812C9.06267 11.1873 8.75 10.4167 8.75 9.5C8.75 8.58333 9.06267 7.81267 9.688 7.188C10.3127 6.56267 11.0833 6.25 12 6.25C12.9167 6.25 13.6873 6.56267 14.312 7.188C14.9373 7.81267 15.25 8.58333 15.25 9.5C15.25 10.4167 14.9373 11.1873 14.312 11.812C13.6873 12.4373 12.9167 12.75 12 12.75ZM12 21.5C10.6833 21.5 9.446 21.25 8.288 20.75C7.12933 20.25 6.125 19.575 5.275 18.725C4.425 17.875 3.75 16.8707 3.25 15.712C2.75 14.554 2.5 13.3167 2.5 12C2.5 10.6833 2.75 9.44567 3.25 8.287C3.75 7.129 4.425 6.125 5.275 5.275C6.125 4.425 7.12933 3.75 8.288 3.25C9.446 2.75 10.6833 2.5 12 2.5C13.3167 2.5 14.5543 2.75 15.713 3.25C16.871 3.75 17.875 4.425 18.725 5.275C19.575 6.125 20.25 7.129 20.75 8.287C21.25 9.44567 21.5 10.6833 21.5 12C21.5 13.3167 21.25 14.554 20.75 15.712C20.25 16.8707 19.575 17.875 18.725 18.725C17.875 19.575 16.871 20.25 15.713 20.75C14.5543 21.25 13.3167 21.5 12 21.5ZM12 20C12.9 20 13.771 19.854 14.613 19.562C15.4543 19.2707 16.2 18.8667 16.85 18.35C16.2 17.85 15.4623 17.4583 14.637 17.175C13.8123 16.8917 12.9333 16.75 12 16.75C11.0667 16.75 10.1877 16.8877 9.363 17.163C8.53767 17.4377 7.8 17.8333 7.15 18.35C7.8 18.8667 8.54567 19.2707 9.387 19.562C10.229 19.854 11.1 20 12 20ZM12 11.25C12.5 11.25 12.9167 11.0833 13.25 10.75C13.5833 10.4167 13.75 10 13.75 9.5C13.75 9 13.5833 8.58333 13.25 8.25C12.9167 7.91667 12.5 7.75 12 7.75C11.5 7.75 11.0833 7.91667 10.75 8.25C10.4167 8.58333 10.25 9 10.25 9.5C10.25 10 10.4167 10.4167 10.75 10.75C11.0833 11.0833 11.5 11.25 12 11.25Z" fill="#2C5BB3"/>
</g>
</svg>
