<svg width="24" height="25" viewBox="0 0 24 25" fill="none" xmlns="http://www.w3.org/2000/svg">
<mask id="mask0_390_753" style="mask-type:alpha" maskUnits="userSpaceOnUse" x="0" y="0" width="24" height="25">
<rect y="0.5" width="24" height="24" fill="#D9D9D9"/>
</mask>
<g mask="url(#mask0_390_753)">
<path d="M2.5 21.55V4.8C2.5 4.3 2.675 3.875 3.025 3.525C3.375 3.175 3.8 3 4.3 3H19.7C20.2 3 20.625 3.175 20.975 3.525C21.325 3.875 21.5 4.3 21.5 4.8V16.2C21.5 16.7 21.325 17.125 20.975 17.475C20.625 17.825 20.2 18 19.7 18H6.05L2.5 21.55ZM4 17.925L5.425 16.5H19.7C19.7833 16.5 19.8543 16.4707 19.913 16.412C19.971 16.354 20 16.2833 20 16.2V4.8C20 4.71667 19.971 4.64567 19.913 4.587C19.8543 4.529 19.7833 4.5 19.7 4.5H4.3C4.21667 4.5 4.146 4.529 4.088 4.587C4.02933 4.64567 4 4.71667 4 4.8V17.925ZM4 4.8V4.5V17.925V4.8Z" fill="#575E71"/>
</g>
</svg>
