<svg width="24" height="25" viewBox="0 0 24 25" fill="none" xmlns="http://www.w3.org/2000/svg">
<mask id="mask0_390_750" style="mask-type:alpha" maskUnits="userSpaceOnUse" x="0" y="0" width="24" height="25">
<rect y="0.5" width="24" height="24" fill="#D9D9D9"/>
</mask>
<g mask="url(#mask0_390_750)">
<path d="M12 20.825L10.9 19.825C9.23333 18.325 7.85833 17.0334 6.775 15.95C5.69167 14.8667 4.83333 13.904 4.2 13.062C3.56667 12.2207 3.125 11.454 2.875 10.762C2.625 10.0707 2.5 9.36669 2.5 8.65002C2.5 7.23336 2.97933 6.04569 3.938 5.08702C4.896 4.12902 6.08333 3.65002 7.5 3.65002C8.36667 3.65002 9.19167 3.85402 9.975 4.26202C10.7583 4.67069 11.4333 5.25836 12 6.02502C12.5667 5.25836 13.2417 4.67069 14.025 4.26202C14.8083 3.85402 15.6333 3.65002 16.5 3.65002C17.9167 3.65002 19.104 4.12902 20.062 5.08702C21.0207 6.04569 21.5 7.23336 21.5 8.65002C21.5 9.36669 21.375 10.0707 21.125 10.762C20.875 11.454 20.4333 12.2207 19.8 13.062C19.1667 13.904 18.3083 14.8667 17.225 15.95C16.1417 17.0334 14.7667 18.325 13.1 19.825L12 20.825ZM12 18.8C13.6 17.3667 14.9167 16.1334 15.95 15.1C16.9833 14.0667 17.8 13.1707 18.4 12.412C19 11.654 19.4167 10.9834 19.65 10.4C19.8833 9.81669 20 9.23336 20 8.65002C20 7.65002 19.6667 6.81669 19 6.15002C18.3333 5.48336 17.5 5.15002 16.5 5.15002C15.7167 5.15002 14.9873 5.37502 14.312 5.82502C13.6373 6.27502 13.1083 6.90002 12.725 7.70002H11.275C10.875 6.88336 10.3417 6.25402 9.675 5.81202C9.00833 5.37069 8.28333 5.15002 7.5 5.15002C6.5 5.15002 5.66667 5.48336 5 6.15002C4.33333 6.81669 4 7.65002 4 8.65002C4 9.23336 4.11667 9.81669 4.35 10.4C4.58333 10.9834 5 11.654 5.6 12.412C6.2 13.1707 7.01667 14.0624 8.05 15.087C9.08333 16.1124 10.4 17.35 12 18.8Z" fill="#575E71"/>
</g>
</svg>
