<svg width="164" height="52" viewBox="0 0 164 52" fill="none" xmlns="http://www.w3.org/2000/svg">
<path d="M51.3307 25.9932C51.3307 29.6124 52.6563 32.3539 55.3075 34.2178C57.9676 36.0726 61.3519 37 65.4604 37C69.569 37 72.9664 36.0726 75.6528 34.2178C78.3392 32.3539 79.6824 29.6124 79.6824 25.9932V25.9796C79.6824 22.3786 78.3392 19.6506 75.6528 17.7958C72.9752 15.9319 69.5778 15 65.4604 15C61.3431 15 57.9588 15.9319 55.3075 17.7958C52.6563 19.6506 51.3307 22.3786 51.3307 25.9796V25.9932ZM57.3881 26.1154V25.8711C57.3881 23.8353 58.13 22.3288 59.6136 21.3516C61.106 20.3745 63.055 19.8859 65.4604 19.8859C67.8834 19.8859 69.8499 20.3745 71.3599 21.3516C72.8786 22.3288 73.638 23.8353 73.638 25.8711V26.1154C73.638 28.1511 72.8786 29.6621 71.3599 30.6484C69.8499 31.6346 67.8834 32.1277 65.4604 32.1277C63.055 32.1277 61.106 31.6346 59.6136 30.6484C58.13 29.6621 57.3881 28.1511 57.3881 26.1154Z" fill="white"/>
<path d="M81.8288 33.8378C81.8288 34.6792 82.1888 35.394 82.9086 35.9821C83.6373 36.5702 84.682 36.8643 86.0427 36.8643C87.4035 36.8643 88.4438 36.5702 89.1636 35.9821C89.8835 35.394 90.2435 34.6792 90.2435 33.8378C90.2435 33.0053 89.8835 32.2951 89.1636 31.707C88.4438 31.1098 87.4035 30.8112 86.0427 30.8112C84.682 30.8112 83.6373 31.1053 82.9086 31.6934C82.1888 32.2815 81.8288 32.9963 81.8288 33.8378Z" fill="#B0C6FF"/>
<path d="M93.338 36.5657L97.71 36.5386V25.7761C97.71 25.4865 97.6529 25.1608 97.5388 24.7989C97.4247 24.437 97.2447 24.1067 96.9989 23.8081H97.4466C97.5607 24.0615 97.7626 24.3736 98.0524 24.7446C98.3508 25.1065 98.6318 25.4594 98.8951 25.8032L109.167 36.5657H114.184V15.4479H109.864V25.8575C109.864 26.1651 109.917 26.4863 110.022 26.8211C110.137 27.1559 110.312 27.468 110.549 27.7576L110.233 27.7983C109.996 27.5359 109.746 27.2328 109.483 26.889C109.219 26.5451 108.982 26.2239 108.771 25.9254L98.6844 15.4479H93.338V36.5657Z" fill="#B0C6FF"/>
<path fill-rule="evenodd" clip-rule="evenodd" d="M139.309 36.5657H118.358V15.4479H139.138V20.2116H124.205V23.3196H137.492V25.6811L130.848 28.0426H124.205V31.8155H139.309V36.5657Z" fill="#B0C6FF"/>
<path fill-rule="evenodd" clip-rule="evenodd" d="M149.502 20.2116H140.837V15.4479H164V20.2116H155.348H149.502ZM149.502 28.3886L155.348 20.2116V36.5657H149.502V28.3886Z" fill="#B0C6FF"/>
<path fill-rule="evenodd" clip-rule="evenodd" d="M5.85996 30.5398V33.5527L0 36.5657V15.4479H12.1018C15.6924 15.4479 18.4402 16.0903 20.3453 17.3751C22.2591 18.6599 23.216 20.5328 23.216 22.9938C23.216 25.4096 22.2591 27.278 20.3453 28.599C18.4402 29.911 15.6924 30.5579 12.1018 30.5398H5.85996ZM5.85996 20.1845V25.8304H11.9438C13.8664 25.8304 15.2491 25.5906 16.0919 25.111C16.9434 24.6315 17.3692 23.9258 17.3692 22.9938C17.3692 22.0619 16.9434 21.3607 16.0919 20.8902C15.2491 20.4197 13.8664 20.1845 11.9438 20.1845H5.85996Z" fill="white"/>
<path fill-rule="evenodd" clip-rule="evenodd" d="M31.6175 36.5657H25.7575V15.4479H37.4116C41.0022 15.4479 43.7939 16.0948 45.7867 17.3886C47.7883 18.6735 48.7891 20.4197 48.7891 22.6274C48.7891 24.6813 47.784 26.3642 45.7736 27.6761C44.8687 28.2651 43.8033 28.7228 42.5774 29.0492L36.74 26.8754L38.5401 29.6294C38.1731 29.6462 37.7969 29.6557 37.4116 29.6576H31.6175V36.5657ZM38.5401 29.6294C39.8749 29.5679 41.0888 29.4077 42.1819 29.1487C42.3155 29.117 42.4474 29.0839 42.5774 29.0492L45.0493 29.9698L50.106 36.5657H43.074L38.5401 29.6294ZM31.6043 20.2116V24.9346H37.3458C39.3561 24.9346 40.7915 24.7717 41.6518 24.446C42.5122 24.1203 42.9423 23.5231 42.9423 22.6545C42.9423 21.7588 42.5122 21.13 41.6518 20.768C40.7915 20.3971 39.3561 20.2116 37.3458 20.2116H31.6043Z" fill="white"/>
<path d="M42.5774 29.0492L36.74 26.8754L38.5401 29.6294C39.8749 29.5679 41.0888 29.4077 42.1819 29.1487C42.3155 29.117 42.4474 29.0839 42.5774 29.0492Z" fill="white"/>
</svg>
