<svg width="24" height="25" viewBox="0 0 24 25" fill="none" xmlns="http://www.w3.org/2000/svg">
<mask id="mask0_390_3154" style="mask-type:alpha" maskUnits="userSpaceOnUse" x="0" y="0" width="24" height="25">
<rect y="0.5" width="24" height="24" fill="#D9D9D9"/>
</mask>
<g mask="url(#mask0_390_3154)">
<path d="M11.25 15.375H12.75V13.375H14.75V11.875H12.75V9.87499H11.25V11.875H9.25V13.375H11.25V15.375ZM4.25 19.375V17.875H6.25V10.625C6.25 9.29165 6.66667 8.09565 7.5 7.03699C8.33333 5.97899 9.41667 5.29999 10.75 4.99999V4.29999C10.75 3.94999 10.871 3.65399 11.113 3.41199C11.3543 3.17065 11.65 3.04999 12 3.04999C12.35 3.04999 12.6457 3.17065 12.887 3.41199C13.129 3.65399 13.25 3.94999 13.25 4.29999V4.99999C14.5833 5.29999 15.6667 5.97899 16.5 7.03699C17.3333 8.09565 17.75 9.29165 17.75 10.625V17.875H19.75V19.375H4.25ZM12 22.3C11.5 22.3 11.075 22.125 10.725 21.775C10.375 21.425 10.2 21 10.2 20.5H13.8C13.8 21 13.625 21.425 13.275 21.775C12.925 22.125 12.5 22.3 12 22.3ZM7.75 17.875H16.25V10.625C16.25 9.44165 15.8333 8.43732 15 7.61199C14.1667 6.78732 13.1667 6.37499 12 6.37499C10.8333 6.37499 9.83333 6.78732 9 7.61199C8.16667 8.43732 7.75 9.44165 7.75 10.625V17.875Z" fill="#B0C6FF"/>
</g>
</svg>
